<?xml version="1.0" encoding="UTF-8" standalone="no"?>
<!-- This is a Stata 17.0 generated SVG file (http://www.stata.com) -->

<svg version="1.1" width="5.500in" height="4.000in" viewBox="0 0 3960 2880" xmlns="http://www.w3.org/2000/svg" xmlns:xlink="http://www.w3.org/1999/xlink">
	<desc>Stata Graph - Graph</desc>
	<rect x="0" y="0" width="3960" height="2880" style="fill:#EAF2F3;stroke:none"/>
	<rect x="0.00" y="0.00" width="3959.88" height="2880.00" style="fill:#EAF2F3"/>
	<rect x="2.88" y="2.88" width="3954.12" height="2874.24" style="fill:none;stroke:#EAF2F3;stroke-width:5.76"/>
	<rect x="290.81" y="275.35" width="3568.21" height="2218.29" style="fill:#FFFFFF"/>
	<rect x="293.69" y="278.23" width="3562.45" height="2212.53" style="fill:none;stroke:#FFFFFF;stroke-width:5.76"/>
	<line x1="290.81" y1="2392.90" x2="3859.02" y2="2392.90" style="stroke:#EAF2F3;stroke-width:8.64"/>
	<line x1="290.81" y1="2013.60" x2="3859.02" y2="2013.60" style="stroke:#EAF2F3;stroke-width:8.64"/>
	<line x1="290.81" y1="1634.29" x2="3859.02" y2="1634.29" style="stroke:#EAF2F3;stroke-width:8.64"/>
	<line x1="290.81" y1="1254.99" x2="3859.02" y2="1254.99" style="stroke:#EAF2F3;stroke-width:8.64"/>
	<line x1="290.81" y1="875.68" x2="3859.02" y2="875.68" style="stroke:#EAF2F3;stroke-width:8.64"/>
	<line x1="290.81" y1="496.50" x2="3859.02" y2="496.50" style="stroke:#EAF2F3;stroke-width:8.64"/>
	<rect x="638.18" y="1526.75" width="1233.29" height="240.08" style="fill:#8DA3B7"/>
	<rect x="642.50" y="1531.07" width="1224.65" height="231.44" style="fill:none;stroke:#1A476F;stroke-width:8.64"/>
	<line x1="638.18" y1="1634.54" x2="1871.47" y2="1634.54" style="stroke:#1A476F;stroke-width:8.64"/>
	<line x1="1254.83" y1="1766.83" x2="1254.83" y2="2116.19" style="stroke:#1A476F;stroke-width:8.64"/>
	<line x1="1254.83" y1="1526.75" x2="1254.83" y2="1183.71" style="stroke:#1A476F;stroke-width:8.64"/>
	<line x1="841.75" y1="2116.19" x2="1668.03" y2="2116.19" style="stroke:#1A476F;stroke-width:8.64"/>
	<line x1="841.75" y1="1183.71" x2="1668.03" y2="1183.71" style="stroke:#1A476F;stroke-width:8.64"/>
	<rect x="2278.36" y="930.63" width="1233.29" height="310.00" style="fill:#C89A9D"/>
	<rect x="2282.68" y="934.95" width="1224.65" height="301.36" style="fill:none;stroke:#90353B;stroke-width:8.64"/>
	<line x1="2278.36" y1="1078.39" x2="3511.65" y2="1078.39" style="stroke:#90353B;stroke-width:8.64"/>
	<line x1="2895.01" y1="1240.63" x2="2895.01" y2="1688.75" style="stroke:#90353B;stroke-width:8.64"/>
	<line x1="2895.01" y1="930.63" x2="2895.01" y2="477.07" style="stroke:#90353B;stroke-width:8.64"/>
	<line x1="2481.93" y1="1688.75" x2="3308.21" y2="1688.75" style="stroke:#90353B;stroke-width:8.64"/>
	<line x1="2481.93" y1="477.07" x2="3308.21" y2="477.07" style="stroke:#90353B;stroke-width:8.64"/>
	<circle cx="1254.83" cy="2193.91" r="26.35" style="fill:#1A476F"/>
	<circle cx="1254.83" cy="2193.91" r="22.03" style="fill:none;stroke:#1A476F;stroke-width:8.64"/>
	<circle cx="1254.83" cy="1129.50" r="26.35" style="fill:#1A476F"/>
	<circle cx="1254.83" cy="1129.50" r="22.03" style="fill:none;stroke:#1A476F;stroke-width:8.64"/>
	<circle cx="1254.83" cy="1105.74" r="26.35" style="fill:#1A476F"/>
	<circle cx="1254.83" cy="1105.74" r="22.03" style="fill:none;stroke:#1A476F;stroke-width:8.64"/>
	<circle cx="2895.01" cy="1755.32" r="26.35" style="fill:#90353B"/>
	<circle cx="2895.01" cy="1755.32" r="22.03" style="fill:none;stroke:#90353B;stroke-width:8.64"/>
	<circle cx="2895.01" cy="1723.15" r="26.35" style="fill:#90353B"/>
	<circle cx="2895.01" cy="1723.15" r="22.03" style="fill:none;stroke:#90353B;stroke-width:8.64"/>
	<circle cx="2895.01" cy="1713.87" r="26.35" style="fill:#90353B"/>
	<circle cx="2895.01" cy="1713.87" r="22.03" style="fill:none;stroke:#90353B;stroke-width:8.64"/>
	<circle cx="2895.01" cy="447.62" r="26.35" style="fill:#90353B"/>
	<circle cx="2895.01" cy="447.62" r="22.03" style="fill:none;stroke:#90353B;stroke-width:8.64"/>
	<circle cx="2895.01" cy="376.21" r="26.35" style="fill:#90353B"/>
	<circle cx="2895.01" cy="376.21" r="22.03" style="fill:none;stroke:#90353B;stroke-width:8.64"/>
	<line x1="290.81" y1="2493.64" x2="290.81" y2="275.35" style="stroke:#000000;stroke-width:5.76"/>
	<line x1="290.81" y1="2392.90" x2="250.84" y2="2392.90" style="stroke:#000000;stroke-width:5.76"/>
	<text x="200.73" y="2392.90" style="font-family:'Helvetica';font-size:99.99px;fill:#000000" transform="rotate(-90 200.73,2392.90)" text-anchor="middle">-4</text>
	<line x1="290.81" y1="2013.60" x2="250.84" y2="2013.60" style="stroke:#000000;stroke-width:5.76"/>
	<text x="200.73" y="2013.60" style="font-family:'Helvetica';font-size:99.99px;fill:#000000" transform="rotate(-90 200.73,2013.60)" text-anchor="middle">-2</text>
	<line x1="290.81" y1="1634.29" x2="250.84" y2="1634.29" style="stroke:#000000;stroke-width:5.76"/>
	<text x="200.73" y="1634.29" style="font-family:'Helvetica';font-size:99.99px;fill:#000000" transform="rotate(-90 200.73,1634.29)" text-anchor="middle">0</text>
	<line x1="290.81" y1="1254.99" x2="250.84" y2="1254.99" style="stroke:#000000;stroke-width:5.76"/>
	<text x="200.73" y="1254.99" style="font-family:'Helvetica';font-size:99.99px;fill:#000000" transform="rotate(-90 200.73,1254.99)" text-anchor="middle">2</text>
	<line x1="290.81" y1="875.68" x2="250.84" y2="875.68" style="stroke:#000000;stroke-width:5.76"/>
	<text x="200.73" y="875.68" style="font-family:'Helvetica';font-size:99.99px;fill:#000000" transform="rotate(-90 200.73,875.68)" text-anchor="middle">4</text>
	<line x1="290.81" y1="496.50" x2="250.84" y2="496.50" style="stroke:#000000;stroke-width:5.76"/>
	<text x="200.73" y="496.50" style="font-family:'Helvetica';font-size:99.99px;fill:#000000" transform="rotate(-90 200.73,496.50)" text-anchor="middle">6</text>
	<line x1="290.81" y1="2493.64" x2="3859.02" y2="2493.64" style="stroke:#000000;stroke-width:5.76"/>
	<text x="2074.92" y="215.98" style="font-family:'Helvetica';font-size:139.96px;fill:#1E2D53" text-anchor="middle">Box Plots of x1 and x2</text>
	<rect x="1421.27" y="2558.24" width="1307.29" height="186.37" style="fill:#FFFFFF"/>
	<rect x="1424.15" y="2561.12" width="1301.54" height="180.61" style="fill:none;stroke:#000000;stroke-width:5.76"/>
	<rect x="1464.46" y="2601.43" width="374.47" height="99.99" style="fill:#8DA3B7"/>
	<rect x="1468.78" y="2605.75" width="365.83" height="91.35" style="fill:none;stroke:#1A476F;stroke-width:8.64"/>
	<rect x="2144.96" y="2601.43" width="374.34" height="99.99" style="fill:#C89A9D"/>
	<rect x="2149.28" y="2605.75" width="365.70" height="91.35" style="fill:none;stroke:#90353B;stroke-width:8.64"/>
	<text x="1898.94" y="2686.46" style="font-family:'Helvetica';font-size:99.99px;fill:#000000">x1</text>
	<text x="2579.32" y="2686.46" style="font-family:'Helvetica';font-size:99.99px;fill:#000000">x2</text>
</svg>
