<?xml version="1.0" encoding="UTF-8" standalone="no"?>
<!-- This is a Stata 17.0 generated SVG file (http://www.stata.com) -->

<svg version="1.1" width="5.500in" height="4.000in" viewBox="0 0 3960 2880" xmlns="http://www.w3.org/2000/svg" xmlns:xlink="http://www.w3.org/1999/xlink">
	<desc>Stata Graph - Graph</desc>
	<rect x="0" y="0" width="3960" height="2880" style="fill:#EAF2F3;stroke:none"/>
	<rect x="0.00" y="0.00" width="3959.88" height="2880.00" style="fill:#EAF2F3"/>
	<rect x="2.88" y="2.88" width="3954.12" height="2874.24" style="fill:none;stroke:#EAF2F3;stroke-width:5.76"/>
	<rect x="290.81" y="275.35" width="3568.21" height="1958.28" style="fill:#FFFFFF"/>
	<rect x="293.69" y="278.23" width="3562.45" height="1952.52" style="fill:none;stroke:#FFFFFF;stroke-width:5.76"/>
	<line x1="290.81" y1="2170.27" x2="3859.02" y2="2170.27" style="stroke:#EAF2F3;stroke-width:8.64"/>
	<line x1="290.81" y1="1729.96" x2="3859.02" y2="1729.96" style="stroke:#EAF2F3;stroke-width:8.64"/>
	<line x1="290.81" y1="1289.52" x2="3859.02" y2="1289.52" style="stroke:#EAF2F3;stroke-width:8.64"/>
	<line x1="290.81" y1="849.20" x2="3859.02" y2="849.20" style="stroke:#EAF2F3;stroke-width:8.64"/>
	<line x1="290.81" y1="408.76" x2="3859.02" y2="408.76" style="stroke:#EAF2F3;stroke-width:8.64"/>
	<path d=" M693.50 2153.07 L699.68 2152.45 L705.99 2151.83 L712.18 2151.21 L718.37 2149.98 L724.56 2148.86 L730.74 2147.75 L737.06 2146.39 L743.24 2144.65 L749.43 2143.05 L755.62 2141.44 L761.81 2140.08 L768.12 2138.84 L774.30 2137.35 L780.49 2135.50 L786.68 2133.89 L792.87 2132.28 L799.18 2130.67 L805.37 2128.20 L811.55 2124.98 L817.74 2120.77 L823.93 2116.31 L830.24 2111.86 L836.43 2107.78 L842.61 2103.32 L848.80 2098.99 L854.99 2094.91 L861.18 2090.45 L867.49 2086.12 L873.68 2081.05 L879.86 2074.36 L886.05 2067.93 L892.24 2061.99 L898.55 2056.42 L904.74 2051.22 L910.92 2045.78 L917.11 2039.34 L923.30 2032.90 L929.61 2024.74 L935.80 2017.06 L941.99 2009.27 L948.17 2001.10 L954.36 1992.81 L960.67 1985.26 L966.86 1977.71 L973.05 1969.91 L979.23 1961.87 L985.42 1954.07 L991.73 1945.16 L997.92 1936.25 L1004.11 1927.34 L1010.30 1917.32 L1016.48 1907.54 L1022.67 1897.77 L1028.98 1885.89 L1035.17 1872.40 L1041.36 1858.66 L1047.54 1844.30 L1053.73 1829.95 L1060.04 1815.47 L1066.23 1801.24 L1072.42 1785.64 L1078.61 1768.20 L1084.79 1750.50 L1091.10 1733.54 L1097.29 1715.72 L1103.48 1699.51 L1109.67 1682.81 L1115.85 1666.59 L1122.17 1650.01 L1128.35 1633.80 L1134.54 1616.97 L1140.73 1601.62 L1146.92 1586.77 L1153.23 1570.93 L1159.41 1554.97 L1165.60 1538.51 L1171.79 1518.09 L1177.98 1498.04 L1184.16 1479.23 L1190.47 1461.41 L1196.66 1444.46 L1202.85 1427.62 L1209.04 1412.28 L1215.22 1395.32 L1221.54 1379.36 L1227.72 1358.94 L1233.91 1337.41 L1240.10 1317.24 L1246.29 1296.32 L1252.60 1275.04 L1258.79 1255.24 L1264.97 1236.05 L1271.16 1214.27 L1277.35 1192.00 L1283.66 1169.60 L1289.85 1149.43 L1296.03 1130.12 L1302.22 1111.19 L1308.41 1092.99 L1314.72 1077.40 L1320.91 1060.82 L1327.10 1045.47 L1333.28 1031.36 L1339.47 1014.66 L1345.66 998.20 L1351.97 984.21 L1358.16 971.10 L1364.34 958.47 L1370.53 945.73 L1376.72 933.97 L1383.03 919.99 L1389.22 905.14 L1395.41 890.04 L1401.59 872.84 L1407.78 855.14 L1414.09 837.07 L1420.28 821.60 L1426.47 806.88 L1432.65 791.78 L1438.84 774.33 L1445.15 759.35 L1451.34 746.48 L1457.53 735.96 L1463.72 724.21 L1469.90 712.45 L1476.21 697.23 L1482.40 683.12 L1488.59 666.17 L1494.78 650.70 L1500.96 636.22 L1507.15 621.62 L1513.46 609.61 L1519.65 599.59 L1525.84 588.82 L1532.03 579.42 L1538.21 570.26 L1544.52 558.75 L1550.71 549.10 L1556.90 540.56 L1563.09 531.28 L1569.27 522.61 L1575.59 516.80 L1581.77 507.27 L1587.96 499.72 L1594.15 494.40 L1600.34 489.57 L1606.65 481.03 L1612.83 471.38 L1619.02 463.71 L1625.21 452.57 L1631.40 440.19 L1637.71 428.93 L1643.90 419.03 L1650.08 410.24 L1656.27 398.73 L1662.46 386.48 L1668.65 377.70 L1674.96 369.41 L1681.14 362.60 L1687.33 356.53 L1693.52 349.23 L1699.71 343.17 L1706.02 339.70 L1712.21 338.84 L1718.39 339.83 L1724.58 342.18 L1730.77 345.40 L1737.08 350.10 L1743.27 357.15 L1749.45 366.19 L1755.64 375.10 L1761.83 385.12 L1768.14 395.52 L1774.33 408.76 L1780.52 423.61 L1786.70 438.83 L1792.89 452.32 L1799.20 469.52 L1805.39 489.20 L1811.58 509.87 L1817.76 532.02 L1823.95 554.29 L1830.14 575.70 L1836.45 597.85 L1842.64 619.39 L1848.83 641.54 L1855.01 665.42 L1861.20 690.42 L1867.51 715.42 L1873.70 742.65 L1879.89 771.98 L1886.07 802.05 L1892.26 830.64 L1898.57 857.61 L1904.76 885.21 L1910.95 914.42 L1917.14 942.14 L1923.32 972.21 L1929.63 1003.40 L1935.82 1036.31 L1942.01 1069.85 L1948.20 1104.50 L1954.38 1141.01 L1960.57 1174.30 L1966.88 1205.98 L1973.07 1237.91 L1979.26 1265.51 L1985.45 1290.88 L1991.63 1316.00 L1997.94 1340.75 L2004.13 1362.90 L2010.32 1381.84 L2016.51 1399.41 L2022.69 1417.72 L2029.01 1436.53 L2035.19 1454.11 L2041.38 1472.18 L2047.57 1490.00 L2053.76 1505.09 L2060.07 1518.21 L2066.25 1531.33 L2072.44 1544.45 L2078.63 1557.57 L2084.82 1569.57 L2091.13 1582.94 L2097.32 1597.29 L2103.50 1611.65 L2109.69 1626.50 L2115.88 1639.61 L2122.07 1652.24 L2128.38 1663.99 L2134.56 1674.14 L2140.75 1682.81 L2146.94 1691.22 L2153.13 1699.14 L2159.44 1706.07 L2165.63 1712.75 L2171.81 1720.43 L2178.00 1728.47 L2184.19 1737.50 L2190.50 1747.03 L2196.69 1757.30 L2202.87 1767.45 L2209.06 1778.34 L2215.25 1788.86 L2221.56 1797.52 L2227.75 1806.44 L2233.94 1814.36 L2240.12 1822.52 L2246.31 1829.58 L2252.62 1837.25 L2258.81 1845.42 L2265.00 1854.82 L2271.18 1864.23 L2277.37 1873.88 L2283.56 1884.03 L2289.87 1895.04 L2296.06 1905.56 L2302.25 1915.83 L2308.43 1926.60 L2314.62 1938.11 L2320.93 1949.37 L2327.12 1960.01 L2333.31 1968.06 L2339.49 1975.11 L2345.68 1982.41 L2351.99 1989.22 L2358.18 1995.41 L2364.37 2002.09 L2370.55 2009.39 L2376.74 2016.20 L2383.05 2023.13 L2389.24 2030.68 L2395.43 2038.84 L2401.62 2047.63 L2407.80 2054.81 L2414.11 2061.00 L2420.30 2066.57 L2426.49 2071.76 L2432.68 2077.08 L2438.86 2082.78 L2445.05 2088.97 L2451.36 2095.40 L2457.55 2101.59 L2463.74 2106.79 L2469.93 2110.25 L2476.11 2113.34 L2482.43 2116.07 L2488.61 2118.42 L2494.80 2121.02 L2500.99 2123.12 L2507.18 2124.48 L2513.49 2125.97 L2519.67 2127.58 L2525.86 2129.19 L2532.05 2131.17 L2538.24 2133.15 L2544.55 2135.25 L2550.74 2137.60" stroke-linejoin="round" style="fill:none;stroke:#1A476F;stroke-width:8.64"/>
	<path d=" M1441.94 2129.80 L1449.86 2127.45 L1457.78 2124.98 L1465.57 2122.38 L1473.49 2119.90 L1481.29 2117.68 L1489.21 2115.20 L1497.13 2112.35 L1504.92 2108.64 L1512.84 2104.68 L1520.76 2100.97 L1528.56 2097.01 L1536.48 2092.80 L1544.28 2088.72 L1552.20 2085.01 L1560.12 2081.54 L1567.91 2078.45 L1575.83 2075.60 L1583.63 2073.12 L1591.55 2070.28 L1599.47 2067.80 L1607.27 2065.58 L1615.19 2063.72 L1622.98 2062.23 L1630.90 2060.75 L1638.82 2058.77 L1646.62 2056.79 L1654.54 2053.94 L1662.33 2050.85 L1670.25 2047.51 L1678.17 2043.67 L1685.97 2040.45 L1693.89 2036.49 L1701.81 2031.67 L1709.61 2027.34 L1717.53 2023.62 L1725.32 2019.29 L1733.24 2013.35 L1741.16 2006.92 L1748.96 1999.86 L1756.88 1992.19 L1764.68 1984.52 L1772.60 1975.98 L1780.52 1967.32 L1788.31 1959.15 L1796.23 1950.61 L1804.03 1941.70 L1811.95 1932.91 L1819.87 1923.63 L1827.66 1914.97 L1835.58 1906.55 L1843.50 1897.89 L1851.30 1888.11 L1859.22 1878.58 L1867.02 1868.44 L1874.94 1859.03 L1882.86 1850.12 L1890.65 1839.85 L1898.57 1827.84 L1906.37 1815.84 L1914.29 1802.23 L1922.21 1787.87 L1930.01 1773.76 L1937.93 1760.28 L1945.72 1747.16 L1953.64 1733.42 L1961.56 1719.93 L1969.36 1706.57 L1977.28 1694.31 L1985.20 1683.18 L1992.99 1671.05 L2000.91 1657.93 L2008.71 1645.18 L2016.63 1632.19 L2024.55 1620.43 L2032.35 1609.91 L2040.27 1599.64 L2048.06 1589.49 L2055.98 1578.98 L2063.90 1567.71 L2071.70 1556.70 L2079.62 1544.94 L2087.42 1533.43 L2095.34 1520.81 L2103.26 1507.32 L2111.05 1493.21 L2118.97 1479.11 L2126.89 1465.86 L2134.69 1452.38 L2142.61 1439.13 L2150.40 1424.78 L2158.32 1409.56 L2166.24 1395.57 L2174.04 1382.21 L2181.96 1367.73 L2189.76 1352.75 L2197.68 1338.03 L2205.60 1323.18 L2213.39 1306.72 L2221.31 1291.37 L2229.11 1276.52 L2237.03 1262.29 L2244.95 1248.80 L2252.75 1234.20 L2260.67 1218.98 L2268.59 1202.27 L2276.38 1183.83 L2284.30 1166.13 L2292.10 1150.54 L2300.02 1136.43 L2307.94 1119.85 L2315.73 1103.27 L2323.65 1087.67 L2331.45 1073.44 L2339.37 1058.71 L2347.29 1042.13 L2355.09 1024.19 L2363.01 1008.97 L2370.80 994.36 L2378.72 978.15 L2386.64 961.69 L2394.44 944.86 L2402.36 930.13 L2410.28 915.65 L2418.07 903.53 L2426.00 892.27 L2433.79 882.86 L2441.71 876.05 L2449.63 866.90 L2457.43 853.90 L2465.35 842.89 L2473.14 833.61 L2481.06 827.05 L2488.98 821.85 L2496.78 817.02 L2504.70 813.56 L2512.50 810.34 L2520.42 806.26 L2528.34 801.55 L2536.13 796.36 L2544.05 793.14 L2551.97 788.31 L2559.77 782.62 L2567.69 778.04 L2575.49 774.82 L2583.41 770.86 L2591.32 767.15 L2599.12 764.68 L2607.04 763.44 L2614.84 761.71 L2622.76 761.58 L2630.68 760.22 L2638.47 757.25 L2646.39 755.64 L2654.19 754.90 L2662.11 756.26 L2670.03 757.25 L2677.83 761.46 L2685.75 768.39 L2693.54 776.80 L2701.46 785.59 L2709.38 793.51 L2717.18 799.45 L2725.10 806.01 L2733.02 812.20 L2740.82 819.13 L2748.74 828.78 L2756.53 841.53 L2764.45 850.31 L2772.37 858.11 L2780.17 868.75 L2788.09 880.51 L2795.88 892.88 L2803.80 905.75 L2811.72 919.99 L2819.52 937.31 L2827.44 956.12 L2835.24 974.31 L2843.16 992.26 L2851.08 1008.10 L2858.87 1025.55 L2866.79 1043.74 L2874.71 1061.81 L2882.51 1080.00 L2890.43 1098.44 L2898.23 1118.49 L2906.15 1136.18 L2914.07 1149.67 L2921.86 1165.02 L2929.78 1181.60 L2937.58 1200.54 L2945.50 1220.09 L2953.42 1239.64 L2961.21 1260.06 L2969.13 1280.73 L2976.93 1300.90 L2984.85 1320.58 L2992.77 1340.63 L3000.57 1362.65 L3008.49 1382.83 L3016.41 1402.38 L3024.20 1423.05 L3032.12 1442.97 L3039.92 1460.30 L3047.84 1478.24 L3055.76 1496.80 L3063.56 1516.11 L3071.48 1534.67 L3079.27 1553.23 L3087.19 1569.82 L3095.11 1585.04 L3102.91 1600.26 L3110.83 1614.74 L3118.62 1628.97 L3126.54 1641.47 L3134.46 1654.96 L3142.26 1667.95 L3150.18 1680.70 L3158.10 1693.45 L3165.90 1703.60 L3173.82 1712.51 L3181.61 1722.04 L3189.53 1732.31 L3197.45 1742.70 L3205.25 1754.09 L3213.17 1766.34 L3220.97 1775.37 L3228.89 1782.92 L3236.81 1791.46 L3244.60 1800.50 L3252.52 1810.77 L3260.32 1822.03 L3268.24 1833.78 L3276.16 1845.67 L3283.95 1856.80 L3291.87 1867.94 L3299.79 1879.33 L3307.59 1888.98 L3315.51 1899.00 L3323.31 1908.41 L3331.23 1916.33 L3339.15 1923.38 L3346.94 1930.56 L3354.86 1937.99 L3362.66 1944.92 L3370.58 1950.11 L3378.50 1954.32 L3386.30 1958.28 L3394.22 1962.98 L3402.01 1967.81 L3409.93 1972.39 L3417.85 1977.09 L3425.65 1981.92 L3433.57 1986.50 L3441.49 1991.45 L3449.28 1996.64 L3457.20 2002.21 L3465.00 2007.29 L3472.92 2012.73 L3480.84 2018.80 L3488.64 2023.87 L3496.56 2029.19 L3504.35 2034.39 L3512.27 2039.59 L3520.19 2045.16 L3527.99 2051.10 L3535.91 2056.91 L3543.71 2063.22 L3551.63 2069.91 L3559.55 2077.08 L3567.34 2083.77 L3575.26 2088.84 L3583.18 2092.06 L3590.98 2095.65 L3598.90 2098.37 L3606.69 2100.60 L3614.61 2102.95 L3622.53 2104.56 L3630.33 2106.04 L3638.25 2107.28 L3646.05 2108.77 L3653.97 2110.37 L3661.89 2112.23 L3669.68 2114.33 L3677.60 2115.82 L3685.40 2117.68 L3693.32 2119.66 L3701.24 2121.76 L3709.04 2124.11 L3716.96 2126.22 L3724.75 2128.20 L3732.67 2130.30 L3740.59 2132.03 L3748.39 2133.76 L3756.31 2135.74 L3764.23 2137.72 L3772.02 2139.95 L3779.94 2141.93 L3787.74 2143.66 L3795.66 2145.64" stroke-linejoin="round" style="fill:none;stroke:#90353B;stroke-width:8.64"/>
	<line x1="290.81" y1="2233.63" x2="290.81" y2="275.35" style="stroke:#000000;stroke-width:5.76"/>
	<line x1="290.81" y1="2170.27" x2="250.84" y2="2170.27" style="stroke:#000000;stroke-width:5.76"/>
	<text x="200.73" y="2170.27" style="font-family:'Helvetica';font-size:99.99px;fill:#000000" transform="rotate(-90 200.73,2170.27)" text-anchor="middle">0</text>
	<line x1="290.81" y1="1729.96" x2="250.84" y2="1729.96" style="stroke:#000000;stroke-width:5.76"/>
	<text x="200.73" y="1729.96" style="font-family:'Helvetica';font-size:99.99px;fill:#000000" transform="rotate(-90 200.73,1729.96)" text-anchor="middle">.1</text>
	<line x1="290.81" y1="1289.52" x2="250.84" y2="1289.52" style="stroke:#000000;stroke-width:5.76"/>
	<text x="200.73" y="1289.52" style="font-family:'Helvetica';font-size:99.99px;fill:#000000" transform="rotate(-90 200.73,1289.52)" text-anchor="middle">.2</text>
	<line x1="290.81" y1="849.20" x2="250.84" y2="849.20" style="stroke:#000000;stroke-width:5.76"/>
	<text x="200.73" y="849.20" style="font-family:'Helvetica';font-size:99.99px;fill:#000000" transform="rotate(-90 200.73,849.20)" text-anchor="middle">.3</text>
	<line x1="290.81" y1="408.76" x2="250.84" y2="408.76" style="stroke:#000000;stroke-width:5.76"/>
	<text x="200.73" y="408.76" style="font-family:'Helvetica';font-size:99.99px;fill:#000000" transform="rotate(-90 200.73,408.76)" text-anchor="middle">.4</text>
	<line x1="290.81" y1="2233.63" x2="3859.02" y2="2233.63" style="stroke:#000000;stroke-width:5.76"/>
	<line x1="354.17" y1="2233.63" x2="354.17" y2="2273.73" style="stroke:#000000;stroke-width:5.76"/>
	<text x="354.17" y="2363.59" style="font-family:'Helvetica';font-size:99.99px;fill:#000000" text-anchor="middle">-4</text>
	<line x1="1001.39" y1="2233.63" x2="1001.39" y2="2273.73" style="stroke:#000000;stroke-width:5.76"/>
	<text x="1001.39" y="2363.59" style="font-family:'Helvetica';font-size:99.99px;fill:#000000" text-anchor="middle">-2</text>
	<line x1="1648.72" y1="2233.63" x2="1648.72" y2="2273.73" style="stroke:#000000;stroke-width:5.76"/>
	<text x="1648.72" y="2363.59" style="font-family:'Helvetica';font-size:99.99px;fill:#000000" text-anchor="middle">0</text>
	<line x1="2295.93" y1="2233.63" x2="2295.93" y2="2273.73" style="stroke:#000000;stroke-width:5.76"/>
	<text x="2295.93" y="2363.59" style="font-family:'Helvetica';font-size:99.99px;fill:#000000" text-anchor="middle">2</text>
	<line x1="2943.15" y1="2233.63" x2="2943.15" y2="2273.73" style="stroke:#000000;stroke-width:5.76"/>
	<text x="2943.15" y="2363.59" style="font-family:'Helvetica';font-size:99.99px;fill:#000000" text-anchor="middle">4</text>
	<line x1="3590.48" y1="2233.63" x2="3590.48" y2="2273.73" style="stroke:#000000;stroke-width:5.76"/>
	<text x="3590.48" y="2363.59" style="font-family:'Helvetica';font-size:99.99px;fill:#000000" text-anchor="middle">6</text>
	<text x="2074.92" y="2473.60" style="font-family:'Helvetica';font-size:99.99px;fill:#000000" text-anchor="middle">x</text>
	<rect x="928.87" y="2558.24" width="2292.10" height="186.37" style="fill:#FFFFFF"/>
	<rect x="931.75" y="2561.12" width="2286.34" height="180.61" style="fill:none;stroke:#000000;stroke-width:5.76"/>
	<line x1="972.06" y1="2651.43" x2="1346.40" y2="2651.43" style="stroke:#1A476F;stroke-width:8.64"/>
	<line x1="2144.96" y1="2651.43" x2="2519.30" y2="2651.43" style="stroke:#90353B;stroke-width:8.64"/>
	<text x="1406.42" y="2686.46" style="font-family:'Helvetica';font-size:99.99px;fill:#000000">Density of x1</text>
	<text x="2579.32" y="2686.46" style="font-family:'Helvetica';font-size:99.99px;fill:#000000">Density of x2</text>
	<text x="2074.92" y="215.98" style="font-family:'Helvetica';font-size:139.96px;fill:#1E2D53" text-anchor="middle">Kernel Density Plots</text>
</svg>
