<?xml version="1.0" encoding="UTF-8" standalone="no"?>
<!-- This is a Stata 17.0 generated SVG file (http://www.stata.com) -->

<svg version="1.1" width="5.500in" height="4.000in" viewBox="0 0 3960 2880" xmlns="http://www.w3.org/2000/svg" xmlns:xlink="http://www.w3.org/1999/xlink">
	<desc>Stata Graph - Graph</desc>
	<rect x="0" y="0" width="3960" height="2880" style="fill:#EAF2F3;stroke:none"/>
	<rect x="0.00" y="0.00" width="3959.88" height="2880.00" style="fill:#EAF2F3"/>
	<rect x="2.88" y="2.88" width="3954.12" height="2874.24" style="fill:none;stroke:#EAF2F3;stroke-width:5.76"/>
	<rect x="390.80" y="275.35" width="3468.22" height="2213.83" style="fill:#FFFFFF"/>
	<rect x="393.68" y="278.23" width="3462.46" height="2208.07" style="fill:none;stroke:#FFFFFF;stroke-width:5.76"/>
	<line x1="390.80" y1="2489.19" x2="3859.02" y2="2489.19" style="stroke:#EAF2F3;stroke-width:8.64"/>
	<line x1="390.80" y1="2059.14" x2="3859.02" y2="2059.14" style="stroke:#EAF2F3;stroke-width:8.64"/>
	<line x1="390.80" y1="1628.97" x2="3859.02" y2="1628.97" style="stroke:#EAF2F3;stroke-width:8.64"/>
	<line x1="390.80" y1="1198.93" x2="3859.02" y2="1198.93" style="stroke:#EAF2F3;stroke-width:8.64"/>
	<line x1="390.80" y1="768.76" x2="3859.02" y2="768.76" style="stroke:#EAF2F3;stroke-width:8.64"/>
	<line x1="390.80" y1="338.71" x2="3859.02" y2="338.71" style="stroke:#EAF2F3;stroke-width:8.64"/>
	<rect x="892.24" y="2456.27" width="109.02" height="32.92" style="fill:#CAC27E"/>
	<rect x="896.56" y="2460.59" width="100.38" height="24.28" style="fill:none;stroke:#D7D29E;stroke-width:8.64"/>
	<rect x="1001.26" y="2456.27" width="108.90" height="32.92" style="fill:#CAC27E"/>
	<rect x="1005.58" y="2460.59" width="100.26" height="24.28" style="fill:none;stroke:#D7D29E;stroke-width:8.64"/>
	<rect x="1110.16" y="2423.22" width="108.90" height="65.96" style="fill:#CAC27E"/>
	<rect x="1114.48" y="2427.54" width="100.26" height="57.32" style="fill:none;stroke:#D7D29E;stroke-width:8.64"/>
	<rect x="1219.06" y="2225.34" width="109.02" height="263.84" style="fill:#CAC27E"/>
	<rect x="1223.38" y="2229.66" width="100.38" height="255.20" style="fill:none;stroke:#D7D29E;stroke-width:8.64"/>
	<rect x="1328.09" y="2159.38" width="108.90" height="329.80" style="fill:#CAC27E"/>
	<rect x="1332.40" y="2163.70" width="100.26" height="321.16" style="fill:none;stroke:#D7D29E;stroke-width:8.64"/>
	<rect x="1436.99" y="1961.62" width="109.02" height="527.56" style="fill:#CAC27E"/>
	<rect x="1441.30" y="1965.94" width="100.38" height="518.92" style="fill:none;stroke:#D7D29E;stroke-width:8.64"/>
	<rect x="1546.01" y="1532.82" width="108.90" height="956.37" style="fill:#CAC27E"/>
	<rect x="1550.33" y="1537.14" width="100.26" height="947.73" style="fill:none;stroke:#D7D29E;stroke-width:8.64"/>
	<rect x="1654.91" y="1532.82" width="109.02" height="956.37" style="fill:#CAC27E"/>
	<rect x="1659.23" y="1537.14" width="100.38" height="947.73" style="fill:none;stroke:#D7D29E;stroke-width:8.64"/>
	<rect x="1763.93" y="939.29" width="108.90" height="1549.89" style="fill:#CAC27E"/>
	<rect x="1768.25" y="943.61" width="100.26" height="1541.25" style="fill:none;stroke:#D7D29E;stroke-width:8.64"/>
	<rect x="1872.83" y="1203.14" width="108.90" height="1286.05" style="fill:#CAC27E"/>
	<rect x="1877.15" y="1207.45" width="100.26" height="1277.41" style="fill:none;stroke:#D7D29E;stroke-width:8.64"/>
	<rect x="1981.73" y="873.33" width="109.02" height="1615.85" style="fill:#CAC27E"/>
	<rect x="1986.05" y="877.65" width="100.38" height="1607.21" style="fill:none;stroke:#D7D29E;stroke-width:8.64"/>
	<rect x="2090.76" y="741.41" width="108.90" height="1747.78" style="fill:#CAC27E"/>
	<rect x="2095.08" y="745.73" width="100.26" height="1739.14" style="fill:none;stroke:#D7D29E;stroke-width:8.64"/>
	<rect x="2199.66" y="675.45" width="109.02" height="1813.74" style="fill:#CAC27E"/>
	<rect x="2203.98" y="679.77" width="100.38" height="1805.10" style="fill:none;stroke:#D7D29E;stroke-width:8.64"/>
	<rect x="2308.68" y="543.53" width="108.90" height="1945.66" style="fill:#CAC27E"/>
	<rect x="2313.00" y="547.85" width="100.26" height="1937.02" style="fill:none;stroke:#D7D29E;stroke-width:8.64"/>
	<rect x="2417.58" y="1466.85" width="109.02" height="1022.33" style="fill:#CAC27E"/>
	<rect x="2421.90" y="1471.17" width="100.38" height="1013.69" style="fill:none;stroke:#D7D29E;stroke-width:8.64"/>
	<rect x="2526.60" y="1730.70" width="108.90" height="758.49" style="fill:#CAC27E"/>
	<rect x="2530.92" y="1735.02" width="100.26" height="749.85" style="fill:none;stroke:#D7D29E;stroke-width:8.64"/>
	<rect x="2635.50" y="2027.58" width="108.90" height="461.60" style="fill:#CAC27E"/>
	<rect x="2639.82" y="2031.90" width="100.26" height="452.96" style="fill:none;stroke:#D7D29E;stroke-width:8.64"/>
	<rect x="2744.40" y="2060.50" width="109.02" height="428.68" style="fill:#CAC27E"/>
	<rect x="2748.72" y="2064.82" width="100.38" height="420.04" style="fill:none;stroke:#D7D29E;stroke-width:8.64"/>
	<rect x="2853.43" y="2060.50" width="108.90" height="428.68" style="fill:#CAC27E"/>
	<rect x="2857.75" y="2064.82" width="100.26" height="420.04" style="fill:none;stroke:#D7D29E;stroke-width:8.64"/>
	<rect x="2962.33" y="2357.26" width="109.02" height="131.92" style="fill:#CAC27E"/>
	<rect x="2966.65" y="2361.58" width="100.38" height="123.28" style="fill:none;stroke:#D7D29E;stroke-width:8.64"/>
	<rect x="3071.35" y="2423.22" width="108.90" height="65.96" style="fill:#CAC27E"/>
	<rect x="3075.67" y="2427.54" width="100.26" height="57.32" style="fill:none;stroke:#D7D29E;stroke-width:8.64"/>
	<rect x="3180.25" y="2423.22" width="109.02" height="65.96" style="fill:#CAC27E"/>
	<rect x="3184.57" y="2427.54" width="100.38" height="57.32" style="fill:none;stroke:#D7D29E;stroke-width:8.64"/>
	<path d=" M892.24 2472.60 L900.16 2471.49 L908.20 2470.37 L916.25 2469.26 L924.29 2468.02 L932.33 2466.66 L940.25 2465.30 L948.30 2463.94 L956.34 2462.33 L964.38 2460.72 L972.30 2459.11 L980.35 2457.26 L988.39 2455.40 L996.44 2453.42 L1004.48 2451.44 L1012.40 2449.21 L1020.44 2446.99 L1028.49 2444.63 L1036.53 2442.16 L1044.45 2439.56 L1052.49 2436.84 L1060.54 2433.87 L1068.58 2430.90 L1076.63 2427.80 L1084.55 2424.59 L1092.59 2421.12 L1100.63 2417.53 L1108.68 2413.82 L1116.60 2409.98 L1124.64 2405.90 L1132.68 2401.69 L1140.73 2397.24 L1148.77 2392.66 L1156.69 2387.83 L1164.73 2382.88 L1172.78 2377.81 L1180.82 2372.36 L1188.87 2366.79 L1196.79 2360.98 L1204.83 2355.04 L1212.87 2348.72 L1220.92 2342.29 L1228.84 2335.61 L1236.88 2328.68 L1244.93 2321.50 L1252.97 2313.95 L1261.01 2306.28 L1268.93 2298.36 L1276.98 2290.07 L1285.02 2281.65 L1293.06 2272.86 L1300.98 2263.71 L1309.03 2254.42 L1317.07 2244.77 L1325.12 2234.87 L1333.16 2224.60 L1341.08 2214.08 L1349.12 2203.31 L1357.17 2192.18 L1365.21 2180.67 L1373.13 2168.91 L1381.17 2156.91 L1389.22 2144.53 L1397.26 2131.78 L1405.31 2118.79 L1413.23 2105.42 L1421.27 2091.81 L1429.31 2077.83 L1437.36 2063.47 L1445.28 2048.87 L1453.32 2033.89 L1461.36 2018.67 L1469.41 2003.08 L1477.45 1987.12 L1485.37 1970.90 L1493.42 1954.44 L1501.46 1937.61 L1509.50 1920.54 L1517.55 1903.09 L1525.47 1885.39 L1533.51 1867.45 L1541.55 1849.13 L1549.60 1830.57 L1557.52 1811.76 L1565.56 1792.70 L1573.61 1773.39 L1581.65 1753.84 L1589.69 1734.04 L1597.61 1714.11 L1605.66 1693.82 L1613.70 1673.40 L1621.74 1652.86 L1629.66 1632.07 L1637.71 1611.15 L1645.75 1589.99 L1653.80 1568.83 L1661.84 1547.42 L1669.76 1526.01 L1677.80 1504.48 L1685.85 1482.82 L1693.89 1461.16 L1701.81 1439.38 L1709.85 1417.60 L1717.90 1395.82 L1725.94 1374.04 L1733.99 1352.26 L1741.91 1330.60 L1749.95 1308.94 L1757.99 1287.41 L1766.04 1265.88 L1774.08 1244.59 L1782.00 1223.31 L1790.04 1202.27 L1798.09 1181.35 L1806.13 1160.69 L1814.05 1140.27 L1822.10 1119.97 L1830.14 1099.92 L1838.18 1080.25 L1846.23 1060.82 L1854.15 1041.76 L1862.19 1022.95 L1870.23 1004.51 L1878.28 986.44 L1886.20 968.75 L1894.24 951.54 L1902.29 934.71 L1910.33 918.38 L1918.37 902.41 L1926.29 887.07 L1934.34 872.09 L1942.38 857.74 L1950.42 843.75 L1958.34 830.51 L1966.39 817.64 L1974.43 805.51 L1982.48 793.88 L1990.52 782.87 L1998.44 772.60 L2006.48 762.82 L2014.53 753.66 L2022.57 745.25 L2030.61 737.45 L2038.53 730.40 L2046.58 723.96 L2054.62 718.14 L2062.67 713.19 L2070.59 708.74 L2078.63 705.15 L2086.67 702.18 L2094.72 699.95 L2102.76 698.47 L2110.68 697.72 L2118.72 697.60 L2126.77 698.34 L2134.81 699.70 L2142.73 701.81 L2150.78 704.53 L2158.82 708.12 L2166.86 712.33 L2174.91 717.28 L2182.83 722.85 L2190.87 729.16 L2198.91 736.21 L2206.96 743.76 L2214.88 752.18 L2222.92 761.09 L2230.97 770.74 L2239.01 781.01 L2247.05 791.90 L2254.97 803.41 L2263.02 815.41 L2271.06 828.16 L2279.10 841.40 L2287.15 855.14 L2295.07 869.49 L2303.11 884.35 L2311.16 899.69 L2319.20 915.41 L2327.12 931.74 L2335.16 948.45 L2343.21 965.65 L2351.25 983.22 L2359.29 1001.29 L2367.21 1019.61 L2375.26 1038.29 L2383.30 1057.35 L2391.34 1076.78 L2399.27 1096.46 L2407.31 1116.38 L2415.35 1136.56 L2423.40 1156.97 L2431.44 1177.64 L2439.36 1198.56 L2447.40 1219.59 L2455.45 1240.76 L2463.49 1262.04 L2471.41 1283.58 L2479.46 1305.11 L2487.50 1326.77 L2495.54 1348.42 L2503.59 1370.20 L2511.51 1391.98 L2519.55 1413.76 L2527.59 1435.42 L2535.64 1457.20 L2543.68 1478.98 L2551.60 1500.52 L2559.65 1522.17 L2567.69 1543.58 L2575.73 1564.99 L2583.65 1586.28 L2591.70 1607.32 L2599.74 1628.35 L2607.78 1649.14 L2615.83 1669.81 L2623.75 1690.23 L2631.79 1710.40 L2639.84 1730.45 L2647.88 1750.25 L2655.80 1769.93 L2663.84 1789.23 L2671.89 1808.42 L2679.93 1827.23 L2687.97 1845.79 L2695.89 1864.10 L2703.94 1882.17 L2711.98 1899.87 L2720.03 1917.44 L2727.95 1934.52 L2735.99 1951.47 L2744.03 1968.06 L2752.08 1984.27 L2760.12 2000.23 L2768.04 2015.83 L2776.08 2031.17 L2784.13 2046.15 L2792.17 2060.87 L2800.09 2075.23 L2808.14 2089.21 L2816.18 2102.95 L2824.22 2116.44 L2832.27 2129.43 L2840.19 2142.18 L2848.23 2154.68 L2856.27 2166.81 L2864.32 2178.56 L2872.36 2190.07 L2880.28 2201.33 L2888.33 2212.22 L2896.37 2222.74 L2904.41 2233.01 L2912.33 2243.04 L2920.38 2252.69 L2928.42 2262.10 L2936.46 2271.25 L2944.51 2280.04 L2952.43 2288.58 L2960.47 2296.87 L2968.52 2304.92 L2976.56 2312.59 L2984.48 2320.14 L2992.52 2327.32 L3000.57 2334.37 L3008.61 2341.05 L3016.65 2347.61 L3024.57 2353.92 L3032.62 2359.99 L3040.66 2365.80 L3048.71 2371.37 L3056.63 2376.82 L3064.67 2382.01 L3072.71 2386.96 L3080.76 2391.79 L3088.80 2396.49 L3096.72 2400.83 L3104.76 2405.16 L3112.81 2409.24 L3120.85 2413.08 L3128.90 2416.91 L3136.82 2420.50 L3144.86 2423.97 L3152.90 2427.18 L3160.95 2430.40 L3168.87 2433.37 L3176.91 2436.34 L3184.95 2439.06 L3193.00 2441.66 L3201.04 2444.14 L3208.96 2446.61 L3217.01 2448.84 L3225.05 2451.07 L3233.09 2453.05 L3241.01 2455.03 L3249.06 2457.01 L3257.10 2458.74 L3265.14 2460.47 L3273.19 2462.08 L3281.11 2463.57 L3289.15 2465.05" stroke-linejoin="round" style="fill:none;stroke:#2D6D66;stroke-width:8.64"/>
	<line x1="390.80" y1="2489.19" x2="390.80" y2="275.35" style="stroke:#000000;stroke-width:5.76"/>
	<line x1="390.80" y1="2489.19" x2="350.83" y2="2489.19" style="stroke:#000000;stroke-width:5.76"/>
	<text x="300.72" y="2489.19" style="font-family:'Helvetica';font-size:99.99px;fill:#000000" transform="rotate(-90 300.72,2489.19)" text-anchor="middle">0</text>
	<line x1="390.80" y1="2059.14" x2="350.83" y2="2059.14" style="stroke:#000000;stroke-width:5.76"/>
	<text x="300.72" y="2059.14" style="font-family:'Helvetica';font-size:99.99px;fill:#000000" transform="rotate(-90 300.72,2059.14)" text-anchor="middle">.1</text>
	<line x1="390.80" y1="1628.97" x2="350.83" y2="1628.97" style="stroke:#000000;stroke-width:5.76"/>
	<text x="300.72" y="1628.97" style="font-family:'Helvetica';font-size:99.99px;fill:#000000" transform="rotate(-90 300.72,1628.97)" text-anchor="middle">.2</text>
	<line x1="390.80" y1="1198.93" x2="350.83" y2="1198.93" style="stroke:#000000;stroke-width:5.76"/>
	<text x="300.72" y="1198.93" style="font-family:'Helvetica';font-size:99.99px;fill:#000000" transform="rotate(-90 300.72,1198.93)" text-anchor="middle">.3</text>
	<line x1="390.80" y1="768.76" x2="350.83" y2="768.76" style="stroke:#000000;stroke-width:5.76"/>
	<text x="300.72" y="768.76" style="font-family:'Helvetica';font-size:99.99px;fill:#000000" transform="rotate(-90 300.72,768.76)" text-anchor="middle">.4</text>
	<line x1="390.80" y1="338.71" x2="350.83" y2="338.71" style="stroke:#000000;stroke-width:5.76"/>
	<text x="300.72" y="338.71" style="font-family:'Helvetica';font-size:99.99px;fill:#000000" transform="rotate(-90 300.72,338.71)" text-anchor="middle">.5</text>
	<text x="190.71" y="1382.33" style="font-family:'Helvetica';font-size:99.99px;fill:#000000" transform="rotate(-90 190.71,1382.33)" text-anchor="middle">Density</text>
	<line x1="390.80" y1="2489.19" x2="3859.02" y2="2489.19" style="stroke:#000000;stroke-width:5.76"/>
	<line x1="454.16" y1="2489.19" x2="454.16" y2="2529.16" style="stroke:#000000;stroke-width:5.76"/>
	<text x="454.16" y="2619.14" style="font-family:'Helvetica';font-size:99.99px;fill:#000000" text-anchor="middle">-4</text>
	<line x1="1289.47" y1="2489.19" x2="1289.47" y2="2529.16" style="stroke:#000000;stroke-width:5.76"/>
	<text x="1289.47" y="2619.14" style="font-family:'Helvetica';font-size:99.99px;fill:#000000" text-anchor="middle">-2</text>
	<line x1="2124.91" y1="2489.19" x2="2124.91" y2="2529.16" style="stroke:#000000;stroke-width:5.76"/>
	<text x="2124.91" y="2619.14" style="font-family:'Helvetica';font-size:99.99px;fill:#000000" text-anchor="middle">0</text>
	<line x1="2960.35" y1="2489.19" x2="2960.35" y2="2529.16" style="stroke:#000000;stroke-width:5.76"/>
	<text x="2960.35" y="2619.14" style="font-family:'Helvetica';font-size:99.99px;fill:#000000" text-anchor="middle">2</text>
	<line x1="3795.66" y1="2489.19" x2="3795.66" y2="2529.16" style="stroke:#000000;stroke-width:5.76"/>
	<text x="3795.66" y="2619.14" style="font-family:'Helvetica';font-size:99.99px;fill:#000000" text-anchor="middle">4</text>
	<text x="2124.91" y="2729.16" style="font-family:'Helvetica';font-size:99.99px;fill:#000000" text-anchor="middle">x1</text>
	<text x="2124.91" y="215.98" style="font-family:'Helvetica';font-size:139.96px;fill:#1E2D53" text-anchor="middle">Histogram of x1</text>
</svg>
