<?xml version="1.0" encoding="UTF-8" standalone="no"?>
<!-- This is a Stata 17.0 generated SVG file (http://www.stata.com) -->

<svg version="1.1" width="5.500in" height="4.000in" viewBox="0 0 3960 2880" xmlns="http://www.w3.org/2000/svg" xmlns:xlink="http://www.w3.org/1999/xlink">
	<desc>Stata Graph - Graph</desc>
	<rect x="0" y="0" width="3960" height="2880" style="fill:#EAF2F3;stroke:none"/>
	<rect x="0.00" y="0.00" width="3959.88" height="2880.00" style="fill:#EAF2F3"/>
	<rect x="2.88" y="2.88" width="3954.12" height="2874.24" style="fill:none;stroke:#EAF2F3;stroke-width:5.76"/>
	<rect x="290.81" y="275.35" width="3568.21" height="2353.80" style="fill:#FFFFFF"/>
	<rect x="293.69" y="278.23" width="3562.45" height="2348.04" style="fill:none;stroke:#FFFFFF;stroke-width:5.76"/>
	<line x1="290.81" y1="2565.79" x2="3859.02" y2="2565.79" style="stroke:#EAF2F3;stroke-width:8.64"/>
	<line x1="290.81" y1="1823.51" x2="3859.02" y2="1823.51" style="stroke:#EAF2F3;stroke-width:8.64"/>
	<line x1="290.81" y1="1081.11" x2="3859.02" y2="1081.11" style="stroke:#EAF2F3;stroke-width:8.64"/>
	<defs>
		<path id="path_ltIGMCDJ" d="M1501.34 2297.86 L1501.34 2297.86 L1500.59 2278.93 L1499.11 2260.12 L1497.13 2241.18 L1494.28 2222.37 L1489.58 2203.44 L1481.29 2184.63 L1470.77 2165.82 L1457.65 2146.88 L1442.93 2128.07 L1425.11 2109.14 L1398.75 2090.33 L1366.82 2071.39 L1336.75 2052.58 L1302.84 2033.65 L1269.92 2014.84 L1231.19 1996.03 L1194.44 1977.09 L1165.60 1958.28 L1140.23 1939.35 L1109.05 1920.54 L1084.55 1901.60 L1058.31 1882.79 L1039.87 1863.98 L1026.51 1845.05 L1007.33 1826.24 L990.12 1807.30 L985.05 1788.49 L999.16 1769.56 L1028.49 1750.75 L1069.45 1731.81 L1120.19 1713.00 L1174.14 1694.19 L1237.38 1675.26 L1282.05 1656.45 L1315.22 1637.51 L1339.84 1618.70 L1363.85 1599.77 L1378.33 1580.96 L1397.01 1562.02 L1412.11 1543.21 L1431.05 1524.40 L1449.36 1505.47 L1462.23 1486.66 L1475.47 1467.72 L1486.24 1448.91 L1491.06 1429.98 L1494.41 1411.17 L1497.87 1392.23 L1499.48 1373.42 L1503.19 1373.42 L1504.80 1392.23 L1508.27 1411.17 L1511.61 1429.98 L1516.43 1448.91 L1527.20 1467.72 L1540.44 1486.66 L1553.31 1505.47 L1571.63 1524.40 L1590.56 1543.21 L1605.66 1562.02 L1624.34 1580.96 L1638.82 1599.77 L1662.83 1618.70 L1687.46 1637.51 L1720.62 1656.45 L1765.29 1675.26 L1828.53 1694.19 L1882.49 1713.00 L1933.22 1731.81 L1974.18 1750.75 L2003.51 1769.56 L2017.62 1788.49 L2012.55 1807.30 L1995.35 1826.24 L1976.16 1845.05 L1962.80 1863.98 L1944.36 1882.79 L1918.13 1901.60 L1893.62 1920.54 L1862.44 1939.35 L1837.07 1958.28 L1808.24 1977.09 L1771.48 1996.03 L1732.75 2014.84 L1699.83 2033.65 L1665.92 2052.58 L1635.85 2071.39 L1603.92 2090.33 L1577.57 2109.14 L1559.75 2128.07 L1545.02 2146.88 L1531.90 2165.82 L1521.38 2184.63 L1513.09 2203.44 L1508.39 2222.37 L1505.54 2241.18 L1503.56 2260.12 L1502.08 2278.93 L1501.34 2297.86 L1501.34 2297.86 Z" stroke-linejoin="round"/>
	</defs>
	<defs>
		<clipPath id="clipPath_MfRVIFay">
			<use xlink:href="#path_ltIGMCDJ"/>
		</clipPath>
	</defs>
	<use xlink:href="#path_ltIGMCDJ" style="stroke:none;fill:#AFBFCD"/>
	<use xlink:href="#path_ltIGMCDJ" style="fill:none;stroke:#1A476F;stroke-width:17.28" clip-path="url(#clipPath_MfRVIFay)"/>
	<defs>
		<path id="path_dFiAKFTJ" d="M2645.03 1964.96 L2645.03 1964.96 L2640.70 1941.08 L2636.25 1917.07 L2630.18 1893.19 L2620.65 1869.18 L2613.60 1845.29 L2608.77 1821.29 L2599.74 1797.40 L2585.76 1773.39 L2565.09 1749.51 L2542.94 1725.50 L2516.33 1701.62 L2483.04 1677.61 L2452.73 1653.72 L2426.61 1629.71 L2395.18 1605.83 L2361.40 1581.82 L2324.64 1557.94 L2286.65 1534.05 L2248.66 1510.04 L2209.93 1486.16 L2178.12 1462.15 L2156.72 1438.27 L2146.44 1414.26 L2136.30 1390.37 L2132.34 1366.37 L2141.49 1342.48 L2159.44 1318.47 L2185.92 1294.59 L2227.01 1270.58 L2271.68 1246.70 L2314.25 1222.69 L2364.00 1198.80 L2410.28 1174.80 L2450.00 1150.91 L2480.45 1126.90 L2505.69 1103.02 L2529.57 1079.01 L2555.31 1055.13 L2571.65 1031.12 L2582.66 1007.23 L2595.53 983.22 L2608.77 959.34 L2622.88 935.33 L2628.08 911.45 L2632.29 887.56 L2637.36 863.55 L2642.06 839.67 L2646.39 815.66 L2648.50 791.78 L2648.50 791.78 L2650.60 815.66 L2654.93 839.67 L2659.76 863.55 L2664.71 887.56 L2668.92 911.45 L2674.24 935.33 L2688.35 959.34 L2701.46 983.22 L2714.33 1007.23 L2725.47 1031.12 L2741.81 1055.13 L2767.55 1079.01 L2791.31 1103.02 L2816.55 1126.90 L2846.99 1150.91 L2886.84 1174.80 L2933.12 1198.80 L2982.75 1222.69 L3025.32 1246.70 L3070.11 1270.58 L3111.20 1294.59 L3137.68 1318.47 L3155.50 1342.48 L3164.78 1366.37 L3160.70 1390.37 L3150.55 1414.26 L3140.40 1438.27 L3118.87 1462.15 L3087.19 1486.16 L3048.33 1510.04 L3010.47 1534.05 L2972.48 1557.94 L2935.60 1581.82 L2901.81 1605.83 L2870.38 1629.71 L2844.27 1653.72 L2814.08 1677.61 L2780.79 1701.62 L2754.06 1725.50 L2731.91 1749.51 L2711.36 1773.39 L2697.38 1797.40 L2688.22 1821.29 L2683.52 1845.29 L2676.47 1869.18 L2666.94 1893.19 L2660.87 1917.07 L2656.42 1941.08 L2652.09 1964.96 L2645.03 1964.96 Z" stroke-linejoin="round"/>
	</defs>
	<defs>
		<clipPath id="clipPath_AXnhffif">
			<use xlink:href="#path_dFiAKFTJ"/>
		</clipPath>
	</defs>
	<use xlink:href="#path_dFiAKFTJ" style="stroke:none;fill:#D8B8BA"/>
	<use xlink:href="#path_dFiAKFTJ" style="fill:none;stroke:#90353B;stroke-width:17.28" clip-path="url(#clipPath_AXnhffif)"/>
	<rect x="1458.27" y="1739.24" width="86.13" height="187.98" style="fill:#486C8C"/>
	<rect x="1462.59" y="1743.56" width="77.49" height="179.34" style="fill:none;stroke:#1A476F;stroke-width:8.64"/>
	<rect x="1458.27" y="1739.24" width="86.13" height="187.98" style="fill:#486C8C"/>
	<rect x="1462.59" y="1743.56" width="77.49" height="179.34" style="fill:none;stroke:#1A476F;stroke-width:8.64"/>
	<rect x="1458.27" y="1739.24" width="86.13" height="187.98" style="fill:#486C8C"/>
	<rect x="1462.59" y="1743.56" width="77.49" height="179.34" style="fill:none;stroke:#1A476F;stroke-width:8.64"/>
	<rect x="1458.27" y="1739.24" width="86.13" height="187.98" style="fill:#486C8C"/>
	<rect x="1462.59" y="1743.56" width="77.49" height="179.34" style="fill:none;stroke:#1A476F;stroke-width:8.64"/>
	<circle cx="1501.34" cy="1823.76" r="26.35" style="fill:#FFFFFF"/>
	<circle cx="1501.34" cy="1823.76" r="22.03" style="fill:none;stroke:#1A476F;stroke-width:8.64"/>
	<circle cx="1501.34" cy="1823.76" r="26.35" style="fill:#FFFFFF"/>
	<circle cx="1501.34" cy="1823.76" r="22.03" style="fill:none;stroke:#1A476F;stroke-width:8.64"/>
	<circle cx="1501.34" cy="1823.76" r="26.35" style="fill:#FFFFFF"/>
	<circle cx="1501.34" cy="1823.76" r="22.03" style="fill:none;stroke:#1A476F;stroke-width:8.64"/>
	<circle cx="1501.34" cy="1823.76" r="26.35" style="fill:#FFFFFF"/>
	<circle cx="1501.34" cy="1823.76" r="22.03" style="fill:none;stroke:#1A476F;stroke-width:8.64"/>
	<line x1="1501.34" y1="1739.24" x2="1501.34" y2="1470.69" style="stroke:#1A476F;stroke-width:8.64"/>
	<line x1="1501.34" y1="2200.72" x2="1501.34" y2="1927.22" style="stroke:#1A476F;stroke-width:8.64"/>
	<rect x="2605.56" y="1272.56" width="86.01" height="242.68" style="fill:#A65D62"/>
	<rect x="2609.88" y="1276.88" width="77.37" height="234.04" style="fill:none;stroke:#90353B;stroke-width:8.64"/>
	<rect x="2605.56" y="1272.56" width="86.01" height="242.68" style="fill:#A65D62"/>
	<rect x="2609.88" y="1276.88" width="77.37" height="234.04" style="fill:none;stroke:#90353B;stroke-width:8.64"/>
	<rect x="2605.56" y="1272.56" width="86.01" height="242.68" style="fill:#A65D62"/>
	<rect x="2609.88" y="1276.88" width="77.37" height="234.04" style="fill:none;stroke:#90353B;stroke-width:8.64"/>
	<rect x="2605.56" y="1272.56" width="86.01" height="242.68" style="fill:#A65D62"/>
	<rect x="2609.88" y="1276.88" width="77.37" height="234.04" style="fill:none;stroke:#90353B;stroke-width:8.64"/>
	<rect x="2605.56" y="1272.56" width="86.01" height="242.68" style="fill:#A65D62"/>
	<rect x="2609.88" y="1276.88" width="77.37" height="234.04" style="fill:none;stroke:#90353B;stroke-width:8.64"/>
	<rect x="2605.56" y="1272.56" width="86.01" height="242.68" style="fill:#A65D62"/>
	<rect x="2609.88" y="1276.88" width="77.37" height="234.04" style="fill:none;stroke:#90353B;stroke-width:8.64"/>
	<circle cx="2648.50" cy="1388.27" r="26.35" style="fill:#FFFFFF"/>
	<circle cx="2648.50" cy="1388.27" r="22.03" style="fill:none;stroke:#90353B;stroke-width:8.64"/>
	<circle cx="2648.50" cy="1388.27" r="26.35" style="fill:#FFFFFF"/>
	<circle cx="2648.50" cy="1388.27" r="22.03" style="fill:none;stroke:#90353B;stroke-width:8.64"/>
	<circle cx="2648.50" cy="1388.27" r="26.35" style="fill:#FFFFFF"/>
	<circle cx="2648.50" cy="1388.27" r="22.03" style="fill:none;stroke:#90353B;stroke-width:8.64"/>
	<circle cx="2648.50" cy="1388.27" r="26.35" style="fill:#FFFFFF"/>
	<circle cx="2648.50" cy="1388.27" r="22.03" style="fill:none;stroke:#90353B;stroke-width:8.64"/>
	<circle cx="2648.50" cy="1388.27" r="26.35" style="fill:#FFFFFF"/>
	<circle cx="2648.50" cy="1388.27" r="22.03" style="fill:none;stroke:#90353B;stroke-width:8.64"/>
	<circle cx="2648.50" cy="1388.27" r="26.35" style="fill:#FFFFFF"/>
	<circle cx="2648.50" cy="1388.27" r="22.03" style="fill:none;stroke:#90353B;stroke-width:8.64"/>
	<line x1="2648.50" y1="1272.56" x2="2648.50" y2="917.39" style="stroke:#90353B;stroke-width:8.64"/>
	<line x1="2648.50" y1="1866.08" x2="2648.50" y2="1515.24" style="stroke:#90353B;stroke-width:8.64"/>
	<line x1="290.81" y1="2629.15" x2="290.81" y2="275.35" style="stroke:#000000;stroke-width:5.76"/>
	<line x1="290.81" y1="2565.79" x2="250.84" y2="2565.79" style="stroke:#000000;stroke-width:5.76"/>
	<text x="200.73" y="2565.79" style="font-family:'Helvetica';font-size:99.99px;fill:#000000" transform="rotate(-90 200.73,2565.79)" text-anchor="middle">-5</text>
	<line x1="290.81" y1="1823.51" x2="250.84" y2="1823.51" style="stroke:#000000;stroke-width:5.76"/>
	<text x="200.73" y="1823.51" style="font-family:'Helvetica';font-size:99.99px;fill:#000000" transform="rotate(-90 200.73,1823.51)" text-anchor="middle">0</text>
	<line x1="290.81" y1="1081.11" x2="250.84" y2="1081.11" style="stroke:#000000;stroke-width:5.76"/>
	<text x="200.73" y="1081.11" style="font-family:'Helvetica';font-size:99.99px;fill:#000000" transform="rotate(-90 200.73,1081.11)" text-anchor="middle">5</text>
	<line x1="290.81" y1="338.71" x2="250.84" y2="338.71" style="stroke:#000000;stroke-width:5.76"/>
	<text x="200.73" y="338.71" style="font-family:'Helvetica';font-size:99.99px;fill:#000000" transform="rotate(-90 200.73,338.71)" text-anchor="middle">10</text>
	<line x1="290.81" y1="2629.15" x2="3859.02" y2="2629.15" style="stroke:#000000;stroke-width:5.76"/>
	<text x="1501.34" y="2719.13" style="font-family:'Helvetica';font-size:99.99px;fill:#000000" text-anchor="middle">x1</text>
	<text x="2648.50" y="2719.13" style="font-family:'Helvetica';font-size:99.99px;fill:#000000" text-anchor="middle">x2</text>
	<text x="2074.92" y="215.98" style="font-family:'Helvetica';font-size:139.96px;fill:#1E2D53" text-anchor="middle">Violin Plots of x1 and x2</text>
</svg>
